<svg width="18" height="15" viewBox="0 0 18 15" fill="none" xmlns="http://www.w3.org/2000/svg">
<path fill-rule="evenodd" clip-rule="evenodd" d="M16.2 0.6C16.2 0.268629 15.9314 0 15.6 0C15.2687 0 15 0.268629 15 0.6L15 2.88586C14.2004 3.20951 13.6364 3.99343 13.6364 4.9091C13.6364 5.82477 14.2004 6.6087 15 6.93235L15 14.4C15 14.7314 15.2687 15 15.6 15C15.9314 15 16.2 14.7314 16.2 14.4L16.2 7.05761C17.223 6.87704 18 5.98381 18 4.9091C18 3.83439 17.223 2.94117 16.2 2.76059V0.6Z" fill="#7884A1"/>
<path fill-rule="evenodd" clip-rule="evenodd" d="M2.56369 0.6C2.56369 0.268629 2.29506 0 1.96369 0C1.63232 0 1.36369 0.268629 1.36369 0.6L1.36369 2.88586C0.564073 3.20951 0 3.99343 0 4.9091C0 5.82477 0.564073 6.6087 1.36369 6.93235L1.36369 14.4C1.36369 14.7314 1.63232 15 1.96369 15C2.29506 15 2.56369 14.7314 2.56369 14.4L2.56369 7.05761C3.5866 6.87704 4.36364 5.98381 4.36364 4.9091C4.36364 3.83439 3.5866 2.94117 2.56369 2.76059V0.6Z" fill="#7884A1"/>
<path fill-rule="evenodd" clip-rule="evenodd" d="M9.38193 14.4C9.38193 14.7314 9.1133 15 8.78193 15C8.45056 15 8.18193 14.7314 8.18193 14.4L8.18193 12.1142C7.38231 11.7905 6.81824 11.0066 6.81824 10.0909C6.81824 9.17526 7.38231 8.39133 8.18193 8.06768L8.18193 0.6C8.18193 0.268629 8.45056 0 8.78193 0C9.1133 0 9.38193 0.268629 9.38193 0.6L9.38193 7.94242C10.4048 8.12299 11.1819 9.01622 11.1819 10.0909C11.1819 11.1656 10.4048 12.0589 9.38193 12.2394V14.4Z" fill="#7884A1"/>
</svg>
