<?xml version="1.0" ?><svg height="60px" version="1.1" viewBox="0 0 60 60" width="60px" xmlns="http://www.w3.org/2000/svg" xmlns:xlink="http://www.w3.org/1999/xlink"><title/><desc/><defs/><g fill="none" fill-rule="evenodd" id="Pirates" stroke="none" stroke-width="1"><g fill="#FFFFFF" fill-opacity="0" id="canvas" transform="translate(-421.000000, -420.000000)"><rect height="660" width="660" x="0" y="0"/></g><g id="scroll"><g id="fill" transform="translate(1.000000, 1.000000)"><path d="M8,4 L8,38 L0,38 L0,26 L2,24 L0,22 L0,4 C0,1.79 1.79,0 4,0 C6.21,0 8,1.79 8,4" fill="#AE938D" id="Fill-1"/><path d="M50,42 L50,52 L42,52 L41,53 L40,52 L16,52 L16,54 C16,56.21 14.21,58 12,58 C9.79,58 8,56.21 8,54 L8,48 L10,46 L8,44 L8,38 L8,4 C8,1.79 6.21,0 4,0 L46,0 C48.21,0 50,1.79 50,4 L50,16 L46,16 L50,20 L50,38 L48,40 L50,42 Z" fill="#FFD0A1" id="Fill-3"/><path d="M58,52 L58,54 C58,56.21 56.21,58 54,58 L12,58 C14.21,58 16,56.21 16,54 L16,52 L40,52 L41,53 L42,52 L50,52 L58,52 Z" fill="#E4F2DE" id="Fill-5"/></g><path d="M19,59 L55,59 C57.209,59 59,57.209 59,55 L59,53 L43,53 L42,54 L41,53 L17,53 L17,55 C17,57.209 15.209,59 13,59 C10.791,59 9,57.209 9,55 L9,49 L11,47 L9,45 L9,5 C9,2.791 7.209,1 5,1 C2.791,1 1,2.791 1,5 L1,23 L3,25 L1,27 L1,39 L5,39 M33,45 L37,45 M17,45 L29,45 M17,39 L19,39 M23,39 L25,39 M29,39 L41,39 M27,33 L29,33 M33,33 L39,33 M17,33 L23,33 M33,27 L41,27 M17,27 L29,27 M27,21 L39,21 M17,15 L29,15 M17,21 L23,21 M12,1 L47,1 C49.209,1 51,2.791 51,5 L51,17 L47,17 L51,21 L51,39 L49,41 L51,43 L51,49" id="stroke" stroke="#51565F" stroke-linecap="round" stroke-linejoin="round"/></g></g></svg>