<?xml version="1.0" encoding="UTF-8" standalone="no"?>
<svg
   xmlns:dc="http://purl.org/dc/elements/1.1/"
   xmlns:cc="http://creativecommons.org/ns#"
   xmlns:rdf="http://www.w3.org/1999/02/22-rdf-syntax-ns#"
   xmlns:svg="http://www.w3.org/2000/svg"
   xmlns="http://www.w3.org/2000/svg"
   xmlns:sodipodi="http://sodipodi.sourceforge.net/DTD/sodipodi-0.dtd"
   xmlns:inkscape="http://www.inkscape.org/namespaces/inkscape"
   version="1.1"
   id="svg2"
   xml:space="preserve"
   width="338.29333"
   height="69.440002"
   viewBox="0 0 338.29333 69.440002"
   sodipodi:docname="dfg_logo_englisch_blau_en_4c.eps"><metadata
     id="metadata8"><rdf:RDF><cc:Work
         rdf:about=""><dc:format>image/svg+xml</dc:format><dc:type
           rdf:resource="http://purl.org/dc/dcmitype/StillImage" /></cc:Work></rdf:RDF></metadata><defs
     id="defs6" /><sodipodi:namedview
     pagecolor="#ffffff"
     bordercolor="#666666"
     borderopacity="1"
     objecttolerance="10"
     gridtolerance="10"
     guidetolerance="10"
     inkscape:pageopacity="0"
     inkscape:pageshadow="2"
     inkscape:window-width="640"
     inkscape:window-height="480"
     id="namedview4" /><g
     id="g10"
     inkscape:groupmode="layer"
     inkscape:label="ink_ext_XXXXXX"
     transform="matrix(1.3333333,0,0,-1.3333333,0,69.44)"><g
       id="g12"
       transform="scale(0.1)"><path
         d="m 0,229.133 h 150.48 c 39.79,0 74.36,8.543 98.872,30.152 24.511,21.606 39.539,56.528 39.57,110.754 -0.02,58.242 -14.043,93.613 -37.383,114.563 -23.34,20.964 -56.758,28.007 -96.637,27.996 v 0.011 H 0 v -61.222 h 104.691 26.508 c 19.879,0.109 33.469,-6.942 41.149,-20.586 7.703,-13.535 10.011,-32.793 10.039,-57.86 -0.028,-24.23 -2.137,-43.273 -9.668,-56.82 -7.52,-13.621 -21.02,-20.918 -41.117,-20.797 h -29.891 v 100.34 H 0 V 229.133"
         style="fill:#2056ae;fill-opacity:1;fill-rule:nonzero;stroke:none"
         id="path14" /><path
         d="m 311.012,229.133 h 101.703 v 102.832 h 126.719 v 63.699 H 412.715 v 55.723 h 126.719 v 61.222 H 311.012 V 229.133"
         style="fill:#2056ae;fill-opacity:1;fill-rule:nonzero;stroke:none"
         id="path16" /><path
         d="m 609.473,481.828 c -30.047,-23.769 -49.043,-59.113 -49.082,-106.816 0.039,-50.918 18.32,-88.352 47.949,-113.352 29.648,-24.988 70.918,-37.5 116.992,-37.5 43.152,0.012 77.246,4.356 113.125,15 v 130.801 h -86.426 v -76.18 l -1.914,-0.746 c -7.265,-2.769 -16.328,-2.652 -23.984,-2.691 -22.285,-0.063 -38.164,9.258 -47.91,23.699 -9.766,14.426 -13.692,33.645 -13.711,53.926 -0.02,26.965 9.14,48.086 25.371,62.207 16.222,14.133 39.172,21.211 66.387,21.211 27.832,0 49.765,-6.258 65.371,-14.481 v 70.528 c -25.703,6.277 -45.262,10.125 -96.309,10.144 h -0.019 c -44.454,0 -85.782,-12.012 -115.84,-35.75"
         style="fill:#2056ae;fill-opacity:1;fill-rule:nonzero;stroke:none"
         id="path18" /><path
         d="m 993.523,417.559 h 8.287 c 30.8,-0.684 46.61,13.984 47.41,43.984 -0.24,15.773 -4.2,26.895 -11.89,33.379 -7.83,6.183 -17.55,9.23 -29.16,9.133 h -14.647 z m -9.91,95.39 h 25.007 c 17.94,-0.195 30.92,-5.019 38.93,-14.453 7.82,-9.48 11.68,-21.992 11.58,-37.508 -0.18,-18.633 -5.65,-32.043 -16.39,-40.207 -10.59,-8.086 -24.42,-12.121 -41.47,-12.121 h -17.657 v 104.289"
         style="fill:#2056ae;fill-opacity:1;fill-rule:nonzero;stroke:none"
         id="path20" /><path
         d="m 1128.18,452.07 c 0,7.012 -1.41,13.125 -4.24,18.36 -2.98,5.293 -7.88,8.027 -14.67,8.222 -6.66,-0.195 -11.93,-2.988 -15.8,-8.359 -3.97,-5.438 -5.95,-11.504 -5.95,-18.223 z m 4.43,-41.035 c -6.93,-2.707 -14.07,-4.101 -21.42,-4.199 -12.07,0.242 -20.71,4.082 -25.95,11.531 -5.18,7.297 -7.73,16.762 -7.63,28.391 0.1,11.875 2.99,21.484 8.69,28.828 5.51,7.297 12.98,10.996 22.4,11.094 10.31,-0.196 17.85,-3.946 22.61,-11.239 4.52,-7.16 6.79,-16.007 6.79,-26.562 v -4.816 h -50.58 c 0,-8.301 2.08,-15.125 6.23,-20.489 4.05,-5.722 10.1,-8.613 18.12,-8.711 3.59,0 7.36,0.657 11.32,1.973 3.97,1.074 7.11,2.316 9.42,3.73 v -9.531"
         style="fill:#2056ae;fill-opacity:1;fill-rule:nonzero;stroke:none"
         id="path22" /><path
         d="m 1215.37,426.602 c -0.1,-5.782 0.11,-11.758 0.63,-17.942 h -8.83 v 13.567 h -0.29 c -0.66,-1.653 -1.58,-3.329 -2.75,-5.028 -1.13,-1.808 -2.62,-3.508 -4.45,-5.109 -1.84,-1.504 -4.11,-2.695 -6.85,-3.574 -2.68,-1.114 -5.95,-1.68 -9.81,-1.68 -8.95,0.098 -15.39,2.891 -19.35,8.398 -3.95,5.391 -5.89,12.383 -5.79,20.938 v 48.683 h 9.03 v -46.32 c 0,-7.305 1.4,-13.008 4.18,-17.097 2.74,-4.387 7.2,-6.575 13.38,-6.575 4.15,0 7.67,0.899 10.54,2.696 2.93,1.711 5.15,3.898 6.66,6.582 1.74,2.773 2.95,5.761 3.6,8.984 0.72,3.164 1.07,6.348 1.07,9.57 v 42.16 h 9.03 v -58.253"
         style="fill:#2056ae;fill-opacity:1;fill-rule:nonzero;stroke:none"
         id="path24" /><path
         d="m 1272.74,476.836 h -16.78 v -49.414 c 0,-3.496 0.77,-6.445 2.33,-8.84 1.42,-2.488 3.92,-3.719 7.51,-3.719 3.3,0 6.11,0.606 8.42,1.817 l 0.57,-7.742 c -1.08,-0.383 -2.58,-0.821 -4.52,-1.301 -2.02,-0.528 -4.23,-0.801 -6.63,-0.801 -3.95,0 -7.08,0.703 -9.38,2.117 -2.22,1.418 -3.89,3.254 -5.01,5.551 -0.99,2.383 -1.62,5.059 -1.91,8.027 -0.28,3.016 -0.43,6.278 -0.43,9.774 v 44.531 h -14.46 v 8.019 h 14.46 v 18.387 l 9.05,3.281 v -21.668 h 16.78 v -8.019"
         style="fill:#2056ae;fill-opacity:1;fill-rule:nonzero;stroke:none"
         id="path26" /><path
         d="m 1285.12,419.688 c 5.6,-3.125 12,-4.727 19.21,-4.825 4.56,0 8.41,1.231 11.57,3.719 3.1,2.297 4.71,5.578 4.8,9.867 -0.09,4.531 -1.88,8.086 -5.37,10.672 -3.48,2.481 -7.59,4.719 -12.29,6.719 -2.22,1.074 -4.34,2.207 -6.36,3.437 -2.02,1.211 -3.96,2.551 -5.79,4.004 -1.65,1.621 -3.02,3.469 -4.1,5.567 -1.04,1.992 -1.56,4.328 -1.56,7.011 0.1,7.598 2.59,12.969 7.48,16.145 4.76,3.113 10.27,4.676 16.53,4.676 2.12,0 4.87,-0.196 8.26,-0.586 3.34,-0.574 6.65,-1.524 9.95,-2.821 l -0.85,-8.195 c -5.33,2.285 -10.8,3.477 -16.41,3.574 -4.72,0 -8.47,-0.879 -11.25,-2.625 -1.46,-0.929 -2.59,-2.199 -3.39,-3.8 -0.85,-1.563 -1.28,-3.653 -1.28,-6.289 0,-1.551 0.54,-3.047 1.63,-4.454 1.03,-1.308 2.42,-2.5 4.17,-3.574 1.75,-1.023 3.72,-2.07 5.94,-3.144 2.21,-1.024 4.38,-2.118 6.5,-3.282 4.81,-2.109 9,-4.902 12.59,-8.406 3.58,-3.508 5.42,-8.351 5.52,-14.543 0,-3.992 -0.79,-7.324 -2.33,-10.008 -1.65,-2.773 -3.72,-5.011 -6.21,-6.718 -5.41,-3.313 -11.14,-4.973 -17.21,-4.973 -7.1,0 -13.97,1.211 -20.59,3.613 l 0.84,9.239"
         style="fill:#2056ae;fill-opacity:1;fill-rule:nonzero;stroke:none"
         id="path28" /><path
         d="m 1396.94,474.777 c -5.23,2.489 -10.5,3.778 -15.84,3.875 -8.86,-0.097 -15.65,-3.027 -20.37,-8.769 -4.95,-5.906 -7.42,-13.613 -7.42,-23.125 0,-8.875 2.43,-16.317 7.29,-22.313 4.71,-6.3 11.22,-9.484 19.52,-9.582 5.7,0 11.26,1.145 16.69,3.438 l 0.84,-8.789 c -5.98,-1.875 -12.29,-2.774 -18.93,-2.676 -11.86,0.242 -20.7,4.277 -26.49,12.109 -5.89,7.696 -8.83,16.965 -8.83,27.813 0.1,12.07 3.46,21.68 10.1,28.828 6.6,7.297 15.38,10.996 26.35,11.094 4.53,0 8.28,-0.34 11.3,-1.016 1.56,-0.293 2.9,-0.605 4.03,-0.937 1.08,-0.391 1.91,-0.723 2.47,-1.016 l -0.71,-8.934"
         style="fill:#2056ae;fill-opacity:1;fill-rule:nonzero;stroke:none"
         id="path30" /><path
         d="m 1415.28,520.762 h 9.04 V 472.07 h 0.28 c 2.03,4.258 5.02,7.793 8.97,10.606 3.96,2.578 8.62,3.906 13.99,4.004 9.84,-0.098 16.55,-3.094 20.14,-8.985 3.48,-5.976 5.17,-13.789 5.07,-23.418 V 408.66 h -9.03 v 45.52 c 0,3.359 -0.19,6.554 -0.57,9.57 -0.42,2.871 -1.25,5.41 -2.48,7.598 -2.3,4.777 -7.15,7.207 -14.5,7.304 -7.93,-0.195 -13.59,-3.339 -16.99,-9.422 -3.35,-6.085 -4.98,-12.667 -4.88,-19.726 V 408.66 h -9.04 v 112.102"
         style="fill:#2056ae;fill-opacity:1;fill-rule:nonzero;stroke:none"
         id="path32" /><path
         d="m 1543.43,452.07 c 0,7.012 -1.42,13.125 -4.25,18.36 -2.98,5.293 -7.87,8.027 -14.67,8.222 -6.66,-0.195 -11.92,-2.988 -15.8,-8.359 -3.96,-5.438 -5.95,-11.504 -5.95,-18.223 z m 4.42,-41.035 c -6.92,-2.707 -14.06,-4.101 -21.41,-4.199 -12.07,0.242 -20.72,4.082 -25.95,11.531 -5.19,7.297 -7.74,16.762 -7.64,28.391 0.1,11.875 2.99,21.484 8.69,28.828 5.51,7.297 12.98,10.996 22.41,11.094 10.31,-0.196 17.85,-3.946 22.6,-11.239 4.52,-7.16 6.79,-16.007 6.79,-26.562 v -4.816 h -50.58 c 0,-8.301 2.08,-15.125 6.23,-20.489 4.06,-5.722 10.1,-8.613 18.12,-8.711 3.59,0 7.36,0.657 11.33,1.973 3.96,1.074 7.11,2.316 9.41,3.73 v -9.531"
         style="fill:#2056ae;fill-opacity:1;fill-rule:nonzero;stroke:none"
         id="path34" /><path
         d="m 983.176,333.594 h 48.004 v -8.895 h -38.094 v -37.304 h 36.324 v -8.887 h -36.324 v -49.199 h -9.91 v 104.285"
         style="fill:#2056ae;fill-opacity:1;fill-rule:nonzero;stroke:none"
         id="path36" /><path
         d="m 1054.02,267.402 c 0,-9.074 2.13,-16.562 6.38,-22.461 4.06,-6.191 10.12,-9.343 18.15,-9.433 8.03,0.09 14.17,3.242 18.43,9.433 4.06,5.899 6.1,13.387 6.1,22.461 0,9.121 -2.04,16.711 -6.1,22.754 -4.26,5.996 -10.4,9.043 -18.43,9.141 -8.03,-0.098 -14.09,-3.145 -18.15,-9.141 -4.25,-6.043 -6.38,-13.633 -6.38,-22.754 z m -9.91,0 c 0,10.852 2.8,20.118 8.41,27.801 5.56,7.883 14.22,11.926 26,12.121 11.96,-0.195 20.74,-4.238 26.34,-12.121 5.42,-7.683 8.13,-16.949 8.13,-27.801 0,-10.656 -2.71,-19.871 -8.13,-27.656 -5.6,-7.93 -14.38,-12.019 -26.34,-12.266 -11.78,0.247 -20.44,4.336 -26,12.266 -5.61,7.785 -8.41,17 -8.41,27.656"
         style="fill:#2056ae;fill-opacity:1;fill-rule:nonzero;stroke:none"
         id="path38" /><path
         d="m 1132.93,288.496 c 0,7.051 -0.19,12.715 -0.57,17 h 9.05 v -14.59 h 0.27 c 1.75,4.477 4.2,8.293 7.36,11.457 3.11,3.203 6.98,4.864 11.59,4.961 2.41,-0.097 4.53,-0.39 6.36,-0.871 v -9.781 c -2.02,0.586 -4.24,0.879 -6.64,0.879 -3.58,-0.102 -6.53,-0.996 -8.84,-2.707 -2.31,-1.797 -4.2,-4.239 -5.65,-7.305 -1.38,-3.016 -2.34,-6.258 -2.9,-9.715 -0.67,-3.703 -1,-7.304 -1,-10.812 v -37.703 h -9.03 v 59.187"
         style="fill:#2056ae;fill-opacity:1;fill-rule:nonzero;stroke:none"
         id="path40" /><path
         d="m 1177.03,240.332 c 5.61,-3.125 12,-4.734 19.21,-4.824 4.56,0 8.42,1.238 11.57,3.722 3.11,2.286 4.71,5.575 4.81,9.864 -0.1,4.527 -1.89,8.086 -5.37,10.664 -3.49,2.488 -7.59,4.726 -12.3,6.726 -2.22,1.067 -4.33,2.215 -6.36,3.426 -2.02,1.223 -3.95,2.563 -5.79,4.028 -1.65,1.597 -3.01,3.457 -4.1,5.546 -1.03,2 -1.55,4.336 -1.55,7.02 0.1,7.598 2.59,12.98 7.48,16.144 4.75,3.114 10.26,4.676 16.52,4.676 2.12,0 4.88,-0.195 8.26,-0.586 3.34,-0.578 6.65,-1.523 9.96,-2.824 l -0.85,-8.191 c -5.34,2.285 -10.81,3.476 -16.42,3.574 -4.72,0 -8.47,-0.867 -11.25,-2.625 -1.46,-0.93 -2.59,-2.188 -3.39,-3.801 -0.85,-1.562 -1.28,-3.652 -1.28,-6.277 0,-1.563 0.55,-3.047 1.63,-4.465 1.04,-1.316 2.42,-2.512 4.17,-3.574 1.75,-1.024 3.72,-2.071 5.94,-3.145 2.22,-1.023 4.38,-2.121 6.5,-3.293 4.82,-2.086 9.01,-4.89 12.59,-8.394 3.59,-3.508 5.42,-8.36 5.52,-14.543 0,-3.992 -0.78,-7.332 -2.32,-10.008 -1.66,-2.774 -3.73,-5.02 -6.22,-6.723 -5.41,-3.308 -11.14,-4.969 -17.2,-4.969 -7.1,0 -13.98,1.204 -20.6,3.614 l 0.84,9.238"
         style="fill:#2056ae;fill-opacity:1;fill-rule:nonzero;stroke:none"
         id="path42" /><path
         d="m 1288.86,295.422 c -5.24,2.488 -10.51,3.777 -15.84,3.875 -8.87,-0.098 -15.66,-3.016 -20.37,-8.777 -4.95,-5.903 -7.43,-13.606 -7.43,-23.118 0,-8.875 2.44,-16.32 7.29,-22.312 4.72,-6.289 11.22,-9.492 19.52,-9.582 5.7,0 11.26,1.144 16.69,3.437 l 0.84,-8.789 c -5.98,-1.875 -12.28,-2.773 -18.93,-2.676 -11.86,0.247 -20.7,4.29 -26.49,12.122 -5.89,7.683 -8.83,16.953 -8.83,27.8 0.1,12.063 3.46,21.672 10.1,28.828 6.6,7.297 15.38,10.997 26.36,11.094 4.52,0 8.28,-0.34 11.3,-1.015 1.55,-0.293 2.9,-0.606 4.02,-0.938 1.08,-0.391 1.91,-0.723 2.47,-1.016 l -0.7,-8.933"
         style="fill:#2056ae;fill-opacity:1;fill-rule:nonzero;stroke:none"
         id="path44" /><path
         d="m 1307.2,341.406 h 9.03 v -48.691 h 0.28 c 2.03,4.269 5.02,7.805 8.98,10.605 3.95,2.571 8.61,3.907 13.98,4.004 9.85,-0.097 16.56,-3.094 20.14,-8.984 3.49,-5.977 5.18,-13.789 5.08,-23.418 v -45.613 h -9.04 v 45.515 c 0,3.36 -0.18,6.555 -0.56,9.571 -0.42,2.871 -1.25,5.41 -2.48,7.597 -2.31,4.778 -7.15,7.207 -14.5,7.305 -7.93,-0.195 -13.6,-3.328 -17,-9.426 -3.35,-6.082 -4.98,-12.664 -4.88,-19.723 v -40.839 h -9.03 v 112.097"
         style="fill:#2056ae;fill-opacity:1;fill-rule:nonzero;stroke:none"
         id="path46" /><path
         d="m 1447.81,247.258 c -0.1,-5.793 0.11,-11.778 0.63,-17.949 h -8.83 v 13.562 h -0.28 c -0.67,-1.648 -1.59,-3.332 -2.76,-5.027 -1.13,-1.797 -2.61,-3.508 -4.45,-5.11 -1.84,-1.504 -4.11,-2.695 -6.85,-3.574 -2.68,-1.113 -5.95,-1.68 -9.81,-1.68 -8.95,0.098 -15.39,2.903 -19.35,8.399 -3.95,5.402 -5.89,12.375 -5.79,20.937 v 48.68 h 9.04 V 259.18 c 0,-7.313 1.39,-13.008 4.18,-17.102 2.73,-4.383 7.19,-6.57 13.37,-6.57 4.15,0 7.67,0.898 10.54,2.695 2.93,1.707 5.15,3.899 6.66,6.582 1.74,2.774 2.95,5.774 3.6,8.985 0.72,3.164 1.07,6.359 1.07,9.57 v 42.156 h 9.03 v -58.238"
         style="fill:#2056ae;fill-opacity:1;fill-rule:nonzero;stroke:none"
         id="path48" /><path
         d="m 1473.45,287.629 c 0,5.828 -0.19,11.785 -0.57,17.867 h 8.82 v -13.562 h 0.28 c 0.84,1.796 1.86,3.593 3.03,5.39 1.13,1.809 2.57,3.43 4.31,4.895 1.83,1.601 4.09,2.871 6.77,3.789 2.73,0.879 5.95,1.316 9.66,1.316 9.08,-0.097 15.6,-2.898 19.54,-8.398 3.77,-5.352 5.65,-12.305 5.65,-20.867 v -48.75 h -9.04 v 46.394 c 0,7.254 -1.29,13.027 -3.89,17.317 -2.83,4.089 -7.38,6.179 -13.65,6.277 -8.12,-0.195 -13.83,-3.164 -17.13,-8.906 -1.7,-2.735 -2.9,-5.684 -3.62,-8.848 -0.75,-3.309 -1.13,-6.672 -1.13,-10.078 v -42.156 h -9.03 v 58.32"
         style="fill:#2056ae;fill-opacity:1;fill-rule:nonzero;stroke:none"
         id="path50" /><path
         d="m 1562.1,267.402 c -0.11,-7.8 1.52,-14.636 4.88,-20.488 3.31,-6.199 8.79,-9.394 16.45,-9.59 8.22,0.196 14.05,3.489 17.51,9.883 3.3,6.191 4.96,12.922 4.96,20.195 0,9.512 -1.54,17.168 -4.61,22.969 -3.21,5.859 -8.98,8.828 -17.3,8.926 -4.34,0 -7.89,-0.945 -10.62,-2.852 -2.79,-1.757 -5.06,-4.238 -6.81,-7.461 -1.56,-2.976 -2.71,-6.367 -3.47,-10.164 -0.67,-3.808 -0.99,-7.621 -0.99,-11.418 z m 52.83,-31.828 c 0,-10.847 -2.55,-19.918 -7.64,-27.215 -5.32,-7.343 -14.29,-11.113 -26.91,-11.308 -4.85,0.097 -9.31,0.625 -13.36,1.594 -3.95,1.023 -6.95,1.812 -8.97,2.402 l 0.78,9.355 c 6.08,-3.363 13.33,-5.136 21.73,-5.332 5.9,0.094 10.51,1.192 13.87,3.282 3.49,1.992 6.06,4.785 7.72,8.378 1.74,3.594 2.85,7.723 3.32,12.391 0.39,4.668 0.57,9.688 0.57,15.086 h -0.29 c -5.22,-10.125 -12.69,-15.094 -22.4,-14.898 -11.59,0.293 -19.7,4.57 -24.31,12.839 -2.45,3.801 -4.15,7.883 -5.09,12.266 -1.18,4.375 -1.76,8.703 -1.76,12.988 -0.1,11.868 2.27,21.426 7.14,28.68 4.8,7.395 12.55,11.145 23.25,11.242 4.84,0 9.11,-0.554 12.78,-1.668 3.54,-1.359 6.95,-4.25 10.26,-8.691 h 0.28 v 8.555 l 9.03,-0.024 v -69.922"
         style="fill:#2056ae;fill-opacity:1;fill-rule:nonzero;stroke:none"
         id="path52" /><path
         d="m 1634.02,240.332 c 5.61,-3.125 12.01,-4.734 19.21,-4.824 4.56,0 8.42,1.238 11.57,3.722 3.11,2.286 4.71,5.575 4.81,9.864 -0.1,4.527 -1.89,8.086 -5.37,10.664 -3.49,2.488 -7.59,4.726 -12.3,6.726 -2.21,1.067 -4.33,2.215 -6.35,3.426 -2.03,1.223 -3.96,2.563 -5.8,4.028 -1.65,1.597 -3.01,3.457 -4.1,5.546 -1.03,2 -1.55,4.336 -1.55,7.02 0.1,7.598 2.59,12.98 7.48,16.144 4.76,3.114 10.26,4.676 16.52,4.676 2.12,0 4.88,-0.195 8.27,-0.586 3.34,-0.578 6.65,-1.523 9.95,-2.824 l -0.85,-8.191 c -5.33,2.285 -10.8,3.476 -16.42,3.574 -4.71,0 -8.46,-0.867 -11.25,-2.625 -1.45,-0.93 -2.59,-2.188 -3.39,-3.801 -0.85,-1.562 -1.28,-3.652 -1.28,-6.277 0,-1.563 0.55,-3.047 1.63,-4.465 1.04,-1.316 2.43,-2.512 4.17,-3.574 1.75,-1.024 3.73,-2.071 5.94,-3.145 2.22,-1.023 4.39,-2.121 6.51,-3.293 4.81,-2.086 9,-4.89 12.58,-8.394 3.59,-3.508 5.42,-8.36 5.52,-14.543 0,-3.992 -0.78,-7.332 -2.32,-10.008 -1.65,-2.774 -3.72,-5.02 -6.21,-6.723 -5.41,-3.308 -11.15,-4.969 -17.21,-4.969 -7.1,0 -13.98,1.204 -20.6,3.614 l 0.84,9.238"
         style="fill:#2056ae;fill-opacity:1;fill-rule:nonzero;stroke:none"
         id="path54" /><path
         d="m 1703.39,267.402 c -0.11,-7.8 1.52,-14.636 4.88,-20.488 3.31,-6.199 8.79,-9.394 16.45,-9.59 8.22,0.196 14.05,3.489 17.51,9.883 3.3,6.191 4.96,12.922 4.96,20.195 0,9.512 -1.55,17.168 -4.61,22.969 -3.21,5.859 -8.98,8.828 -17.3,8.926 -4.34,0 -7.89,-0.945 -10.62,-2.852 -2.79,-1.757 -5.06,-4.238 -6.81,-7.461 -1.56,-2.976 -2.71,-6.367 -3.47,-10.164 -0.67,-3.808 -0.99,-7.621 -0.99,-11.418 z m 52.83,-31.828 c 0,-10.847 -2.55,-19.918 -7.64,-27.215 -5.32,-7.343 -14.29,-11.113 -26.91,-11.308 -4.85,0.097 -9.31,0.625 -13.36,1.594 -3.95,1.023 -6.95,1.812 -8.97,2.402 l 0.78,9.355 c 6.08,-3.363 13.33,-5.136 21.73,-5.332 5.89,0.094 10.51,1.192 13.87,3.282 3.49,1.992 6.06,4.785 7.72,8.378 1.74,3.594 2.85,7.723 3.32,12.391 0.39,4.668 0.57,9.688 0.57,15.086 h -0.29 c -5.22,-10.125 -12.69,-15.094 -22.4,-14.898 -11.59,0.293 -19.7,4.57 -24.31,12.839 -2.45,3.801 -4.15,7.883 -5.1,12.266 -1.17,4.375 -1.75,8.703 -1.75,12.988 -0.1,11.868 2.27,21.426 7.14,28.68 4.8,7.395 12.54,11.145 23.25,11.242 4.84,0 9.11,-0.554 12.78,-1.668 3.54,-1.359 6.95,-4.25 10.25,-8.691 h 0.29 v 8.555 l 9.03,-0.024 v -69.922"
         style="fill:#2056ae;fill-opacity:1;fill-rule:nonzero;stroke:none"
         id="path56" /><path
         d="m 1826.01,272.727 c 0,6.992 -1.42,13.113 -4.25,18.347 -2.98,5.293 -7.87,8.028 -14.67,8.223 -6.66,-0.195 -11.92,-2.977 -15.8,-8.367 -3.97,-5.434 -5.95,-11.504 -5.95,-18.203 z m 4.42,-41.055 c -6.92,-2.695 -14.06,-4.094 -21.42,-4.192 -12.07,0.247 -20.71,4.094 -25.94,11.536 -5.19,7.293 -7.74,16.757 -7.64,28.386 0.1,11.868 2.99,21.477 8.69,28.828 5.51,7.297 12.98,10.997 22.4,11.094 10.32,-0.195 17.86,-3.945 22.61,-11.242 4.52,-7.144 6.79,-16.004 6.79,-26.559 v -4.816 h -50.58 c 0,-8.293 2.08,-15.129 6.23,-20.5 4.06,-5.699 10.1,-8.609 18.12,-8.699 3.59,0 7.36,0.652 11.33,1.972 3.96,1.075 7.11,2.317 9.41,3.731 v -9.539"
         style="fill:#2056ae;fill-opacity:1;fill-rule:nonzero;stroke:none"
         id="path58" /><path
         d="m 1946.27,229.309 v 50.703 c 0,2.82 -0.2,5.429 -0.59,7.82 -0.59,2.285 -1.55,4.285 -2.88,5.988 -1.18,1.754 -2.82,3.145 -4.94,4.168 -2.11,0.871 -4.74,1.309 -7.89,1.309 -5.3,0 -10.03,-2.188 -14.15,-6.57 -4.23,-4.582 -6.4,-11.672 -6.49,-21.262 v -42.156 h -9.04 v 50.703 c 0,2.82 -0.22,5.429 -0.66,7.82 -0.59,2.285 -1.55,4.285 -2.87,5.988 -1.18,1.754 -2.83,3.145 -4.94,4.168 -2.12,0.871 -4.75,1.309 -7.89,1.309 -5.32,0 -10.03,-2.188 -14.16,-6.57 -4.23,-4.582 -6.39,-11.672 -6.49,-21.262 v -42.156 h -9.05 v 58.308 c 0,5.84 -0.19,11.797 -0.57,17.879 h 9.09 v -12.848 l 0.29,-0.136 c 0.68,1.402 1.63,2.957 2.84,4.668 0.97,1.699 2.35,3.277 4.14,4.746 1.8,1.504 4.02,2.82 6.69,3.933 2.67,0.977 5.99,1.465 9.96,1.465 1.8,0 3.74,-0.195 5.82,-0.586 1.99,-0.39 3.97,-1.191 5.97,-2.402 1.98,-1.113 3.73,-2.715 5.23,-4.797 1.46,-2.176 2.5,-4.937 3.13,-8.289 h 0.29 c 1.88,4.563 4.92,8.359 9.09,11.414 4.07,3.012 9.13,4.563 15.2,4.66 7.7,-0.097 13.64,-2.48 17.81,-7.16 4.07,-4.617 6.11,-10.75 6.11,-18.387 v -52.468 h -9.05"
         style="fill:#2056ae;fill-opacity:1;fill-rule:nonzero;stroke:none"
         id="path60" /><path
         d="m 2025.23,272.727 c 0,6.992 -1.41,13.113 -4.24,18.347 -2.98,5.293 -7.87,8.028 -14.67,8.223 -6.66,-0.195 -11.93,-2.977 -15.8,-8.367 -3.97,-5.434 -5.95,-11.504 -5.95,-18.203 z m 4.43,-41.055 c -6.93,-2.695 -14.06,-4.094 -21.42,-4.192 -12.07,0.247 -20.71,4.094 -25.95,11.536 -5.18,7.293 -7.73,16.757 -7.63,28.386 0.1,11.868 2.99,21.477 8.69,28.828 5.51,7.297 12.98,10.997 22.4,11.094 10.31,-0.195 17.85,-3.945 22.61,-11.242 4.52,-7.144 6.79,-16.004 6.79,-26.559 v -4.816 h -50.58 c 0,-8.293 2.08,-15.129 6.23,-20.5 4.05,-5.699 10.1,-8.609 18.12,-8.699 3.59,0 7.36,0.652 11.32,1.972 3.97,1.075 7.11,2.317 9.42,3.731 v -9.539"
         style="fill:#2056ae;fill-opacity:1;fill-rule:nonzero;stroke:none"
         id="path62" /><path
         d="m 2054.94,305.496 h 9.03 v -76.187 h -9.03 z m 9.03,20.363 h -9.03 v 12.539 h 9.03 v -12.539"
         style="fill:#2056ae;fill-opacity:1;fill-rule:nonzero;stroke:none"
         id="path64" /><path
         d="m 2088.14,287.629 c 0,5.828 -0.18,11.785 -0.56,17.867 h 8.82 v -13.562 h 0.28 c 0.84,1.796 1.86,3.593 3.03,5.39 1.13,1.809 2.57,3.43 4.3,4.895 1.84,1.601 4.1,2.871 6.78,3.789 2.73,0.879 5.95,1.316 9.66,1.316 9.08,-0.097 15.59,-2.898 19.54,-8.398 3.77,-5.352 5.64,-12.305 5.64,-20.867 v -48.75 h -9.03 v 46.394 c 0,7.254 -1.3,13.027 -3.89,17.317 -2.84,4.089 -7.39,6.179 -13.66,6.277 -8.11,-0.195 -13.83,-3.164 -17.13,-8.906 -1.7,-2.735 -2.9,-5.684 -3.61,-8.848 -0.75,-3.309 -1.13,-6.672 -1.13,-10.078 v -42.156 h -9.04 v 58.32"
         style="fill:#2056ae;fill-opacity:1;fill-rule:nonzero;stroke:none"
         id="path66" /><path
         d="m 2165.61,240.332 c 5.6,-3.125 12,-4.734 19.2,-4.824 4.57,0 8.42,1.238 11.58,3.722 3.1,2.286 4.7,5.575 4.8,9.864 -0.1,4.527 -1.88,8.086 -5.37,10.664 -3.49,2.488 -7.59,4.726 -12.29,6.726 -2.22,1.067 -4.34,2.215 -6.36,3.426 -2.02,1.223 -3.96,2.563 -5.79,4.028 -1.65,1.597 -3.02,3.457 -4.1,5.546 -1.04,2 -1.56,4.336 -1.56,7.02 0.1,7.598 2.59,12.98 7.48,16.144 4.76,3.114 10.27,4.676 16.53,4.676 2.12,0 4.87,-0.195 8.26,-0.586 3.34,-0.578 6.65,-1.523 9.95,-2.824 l -0.85,-8.191 c -5.33,2.285 -10.8,3.476 -16.42,3.574 -4.71,0 -8.46,-0.867 -11.25,-2.625 -1.45,-0.93 -2.58,-2.188 -3.38,-3.801 -0.85,-1.562 -1.28,-3.652 -1.28,-6.277 0,-1.563 0.54,-3.047 1.63,-4.465 1.03,-1.316 2.42,-2.512 4.17,-3.574 1.74,-1.024 3.72,-2.071 5.93,-3.145 2.22,-1.023 4.39,-2.121 6.51,-3.293 4.81,-2.086 9,-4.89 12.59,-8.394 3.58,-3.508 5.42,-8.36 5.51,-14.543 0,-3.992 -0.78,-7.332 -2.32,-10.008 -1.65,-2.774 -3.72,-5.02 -6.21,-6.723 -5.41,-3.308 -11.14,-4.969 -17.21,-4.969 -7.1,0 -13.97,1.204 -20.59,3.614 l 0.84,9.238"
         style="fill:#2056ae;fill-opacity:1;fill-rule:nonzero;stroke:none"
         id="path68" /><path
         d="m 2277.43,295.422 c -5.23,2.488 -10.51,3.777 -15.84,3.875 -8.87,-0.098 -15.65,-3.016 -20.37,-8.777 -4.95,-5.903 -7.42,-13.606 -7.42,-23.118 0,-8.875 2.43,-16.32 7.28,-22.312 4.72,-6.289 11.22,-9.492 19.53,-9.582 5.7,0 11.26,1.144 16.68,3.437 l 0.84,-8.789 c -5.97,-1.875 -12.28,-2.773 -18.92,-2.676 -11.87,0.247 -20.7,4.29 -26.5,12.122 -5.88,7.683 -8.82,16.953 -8.82,27.8 0.09,12.063 3.45,21.672 10.09,28.828 6.61,7.297 15.39,10.997 26.36,11.094 4.52,0 8.28,-0.34 11.3,-1.015 1.55,-0.293 2.9,-0.606 4.02,-0.938 1.09,-0.391 1.92,-0.723 2.47,-1.016 l -0.7,-8.933"
         style="fill:#2056ae;fill-opacity:1;fill-rule:nonzero;stroke:none"
         id="path70" /><path
         d="m 2295.76,341.406 h 9.03 v -48.691 h 0.29 c 2.03,4.269 5.02,7.805 8.97,10.605 3.96,2.571 8.62,3.907 13.99,4.004 9.84,-0.097 16.55,-3.094 20.13,-8.984 3.49,-5.977 5.18,-13.789 5.08,-23.418 v -45.613 h -9.03 v 45.515 c 0,3.36 -0.19,6.555 -0.57,9.571 -0.42,2.871 -1.25,5.41 -2.48,7.597 -2.3,4.778 -7.15,7.207 -14.5,7.305 -7.93,-0.195 -13.59,-3.328 -16.99,-9.426 -3.35,-6.082 -4.98,-12.664 -4.89,-19.723 v -40.839 h -9.03 v 112.097"
         style="fill:#2056ae;fill-opacity:1;fill-rule:nonzero;stroke:none"
         id="path72" /><path
         d="m 2420.41,267.703 h -2.62 c -3.96,0 -7.93,-0.105 -11.89,-0.301 -4.15,-0.379 -7.93,-1.242 -11.33,-2.558 -3.4,-1.172 -6.11,-2.996 -8.13,-5.489 -2.23,-2.539 -3.33,-5.898 -3.33,-10.097 0,-4.871 1.55,-8.367 4.66,-10.457 2.88,-2.199 6.45,-3.293 10.7,-3.293 5.33,0 9.53,1.094 12.59,3.293 3.03,2.09 5.22,4.578 6.59,7.461 1.41,3.125 2.22,6.172 2.41,9.148 0.23,3.117 0.35,5.684 0.35,7.676 z m 0.84,-26.199 h -0.28 c -2.12,-4.453 -5.37,-7.871 -9.75,-10.242 -4.34,-2.422 -8.91,-3.684 -13.71,-3.782 -5.14,0.098 -9.29,0.95 -12.44,2.551 -3.3,1.5 -5.82,3.399 -7.56,5.684 -3.08,4.949 -4.51,9.375 -4.32,13.262 0,6.367 1.49,11.386 4.46,15.078 2.92,3.687 6.64,6.336 11.17,7.949 4.52,1.648 9.44,2.742 14.76,3.269 5.24,0.293 10.26,0.442 15.06,0.442 h 1.77 v 3.894 c 0.29,13.125 -5.32,19.688 -16.85,19.688 -7.63,0.098 -14.88,-2 -21.72,-6.317 v 9.137 c 6.83,3.274 14.06,5.012 21.69,5.207 17.47,0.188 26.11,-9.265 25.91,-28.386 v -33.645 c -0.14,-5.789 0.11,-11.121 0.77,-15.984 h -8.96 v 12.195"
         style="fill:#2056ae;fill-opacity:1;fill-rule:nonzero;stroke:none"
         id="path74" /><path
         d="m 2459.82,297.473 h -14.9 v 8.023 h 14.9 v 5.551 c 0,4.082 0.19,8.074 0.57,11.961 0.19,3.801 0.92,7.18 2.19,10.148 1.22,3.114 3.19,5.567 5.93,7.371 2.57,1.75 6.18,2.629 10.79,2.629 1.55,0 3.14,-0.051 4.79,-0.148 1.65,-0.293 2.89,-0.731 3.74,-1.309 l -0.56,-8.242 c -2.04,1.113 -4.44,1.68 -7.22,1.68 -3.03,0 -5.31,-0.711 -6.87,-2.117 -1.66,-1.614 -2.76,-3.555 -3.33,-5.84 -0.56,-2.285 -0.85,-4.731 -0.85,-7.309 -0.09,-2.672 -0.14,-5.254 -0.14,-7.73 v -6.645 h 16.64 v -8.023 h -16.64 v -68.164 h -9.04 v 68.164"
         style="fill:#2056ae;fill-opacity:1;fill-rule:nonzero;stroke:none"
         id="path76" /><path
         d="m 2535.13,297.473 h -16.79 v -49.399 c 0,-3.511 0.77,-6.453 2.33,-8.844 1.42,-2.484 3.92,-3.722 7.51,-3.722 3.3,0 6.12,0.605 8.42,1.824 l 0.57,-7.754 c -1.08,-0.387 -2.58,-0.816 -4.51,-1.297 -2.03,-0.539 -4.24,-0.801 -6.63,-0.801 -3.96,0 -7.08,0.704 -9.39,2.122 -2.22,1.406 -3.89,3.261 -5.01,5.546 -0.99,2.383 -1.62,5.055 -1.9,8.028 -0.29,3.015 -0.43,6.277 -0.43,9.773 v 44.524 h -14.47 v 8.023 h 14.47 v 18.391 l 9.04,3.281 v -21.672 h 16.79 v -8.023"
         style="fill:#2056ae;fill-opacity:1;fill-rule:nonzero;stroke:none"
         id="path78" /><g
         id="g80"
         transform="scale(10)"><text
           transform="matrix(1,0,0,-1,97.4609,2.75039)"
           style="font-variant:normal;font-weight:300;font-size:11px;font-family:Frutiger;-inkscape-font-specification:Frutiger-Light;writing-mode:lr-tb;fill:#6ba2dc;fill-opacity:1;fill-rule:nonzero;stroke:none"
           id="text84"><tspan
             x="0 7.9443316 13.444331 17.10644 26.270502 31.770502 37.887688 40.944332 47.061527 52.561527 56.842773 62.342773 67.842773 71.306641 76.188477 82.306641 85.362297 90.24511 96.362297 102.48046 108.59863 114.71583 120.21583 123.87883 126.32317 132.44037"
             y="0"
             sodipodi:role="line"
             id="tspan82">German Research Foundation</tspan></text></g></g></g></svg>
